<?xml version="1.0" encoding="iso-8859-1"?>
<svg version="1.1" xmlns="http://www.w3.org/2000/svg" xmlns:xlink="http://www.w3.org/1999/xlink" x="0px" y="0px"
	 width="1600px" height="1600px" viewBox="0 0 1600 1600" enable-background="new 0 0 1600 1600" xml:space="preserve">

<circle fill="#0040FF" cx="800" cy="800" r="1250" />
<circle fill="#0080FF" cx="800" cy="800" r="1200" />
<circle fill="#00B0FF" cx="800" cy="800" r="1150" />
<circle fill="#00FFFF" cx="800" cy="800" r="1100" />
<circle fill="#00FFB0" cx="800" cy="800" r="1050" />
<circle fill="#00FF80" cx="800" cy="800" r="1000" />
<circle fill="#00FF50" cx="800" cy="800" r="950" />
<circle fill="#00FF00" cx="800" cy="800" r="900" />
<circle fill="#50FF00" cx="800" cy="800" r="850" />
<circle fill="#80FF00" cx="800" cy="800" r="800" />
<circle fill="#B0FF00" cx="800" cy="800" r="750" />
<circle fill="#FFFF00" cx="800" cy="800" r="700" />
<circle fill="#FFB000" cx="800" cy="800" r="650" />
<circle fill="#FF8000" cx="800" cy="800" r="600" />
<circle fill="#FF4000" cx="800" cy="800" r="550" />
<circle fill="#FF0000" cx="800" cy="800" r="500" />
<circle fill="#FF0040" cx="800" cy="800" r="450" />
<circle fill="#FF0080" cx="800" cy="800" r="400" />
<circle fill="#FF00B0" cx="800" cy="800" r="350" />
<circle fill="#FF00FF" cx="800" cy="800" r="300" />
<circle fill="#B000FF" cx="800" cy="800" r="250" />
<circle fill="#8000FF" cx="800" cy="800" r="200" />
<circle fill="#4000FF" cx="800" cy="800" r="150" />
<circle fill="#0000FF" cx="800" cy="800" r="100" />
<circle fill="#0000F0" cx="800" cy="800" r="50" />

</svg>